HIERARCHY
ROOT Hips
{
	OFFSET 0.000000 89.005402 0.000000
	CHANNELS 6 Xposition Yposition Zposition Xrotation Yrotation Zrotation
	JOINT Spine
	{
		OFFSET 0.116900 10.681000 0.373400
		CHANNELS 3 Xrotation Yrotation Zrotation
		JOINT Spine1
		{
			OFFSET 0.000000 13.840401 0.053500
			CHANNELS 3 Xrotation Yrotation Zrotation
			JOINT Spine2
			{
				OFFSET 0.000000 14.712700 -0.366200
				CHANNELS 3 Xrotation Yrotation Zrotation
				JOINT Neck
				{
					OFFSET 0.000000 35.415497 -3.314200
					CHANNELS 3 Xrotation Yrotation Zrotation
					JOINT Head
					{
						OFFSET 0.000000 16.899200 1.218300
						CHANNELS 3 Xrotation Yrotation Zrotation
						JOINT HeadTop_End
						{
							OFFSET 0.000000 22.206207 2.192500
							CHANNELS 3 Xrotation Yrotation Zrotation
							End Site
							{
								OFFSET 0.000000 22.314178 0.000000
							}
						}
					}
				}
				JOINT LeftShoulder
				{
					OFFSET 12.896400 26.716293 -4.548400
					CHANNELS 3 Xrotation Yrotation Zrotation
					JOINT LeftArm
					{
						OFFSET 19.027000 -4.857010 -1.718400
						CHANNELS 3 Xrotation Yrotation Zrotation
						JOINT LeftForeArm
						{
							OFFSET 24.179897 0.000000 0.000000
							CHANNELS 3 Xrotation Yrotation Zrotation
							JOINT LeftHand
							{
								OFFSET 27.156403 0.000000 0.000000
								CHANNELS 3 Xrotation Yrotation Zrotation
								JOINT LeftHandIndex1
								{
									OFFSET 16.441200 0.000000 0.000000
									CHANNELS 3 Xrotation Yrotation Zrotation
									JOINT LeftHandIndex2
									{
										OFFSET 4.821899 0.000000 0.000000
										CHANNELS 3 Xrotation Yrotation Zrotation
										JOINT LeftHandIndex3
										{
											OFFSET 6.386497 0.000000 0.000000
											CHANNELS 3 Xrotation Yrotation Zrotation
											JOINT LeftHandIndex4
											{
												OFFSET 5.188988 0.000000 0.000000
												CHANNELS 3 Xrotation Yrotation Zrotation
												End Site
												{
													OFFSET -0.178703 5.185913 0.000177
												}
											}
										}
									}
								}
								JOINT LeftHandThumb1
								{
									OFFSET 6.534897 -5.032593 5.900300
									CHANNELS 3 Xrotation Yrotation Zrotation
									JOINT LeftHandThumb2
									{
										OFFSET 3.818176 -2.204422 2.204423
										CHANNELS 3 Xrotation Yrotation Zrotation
										JOINT LeftHandThumb3
										{
											OFFSET 3.252098 -1.877594 1.877601
											CHANNELS 3 Xrotation Yrotation Zrotation
											JOINT LeftHandThumb4
											{
												OFFSET 5.251778 -3.032120 3.032117
												CHANNELS 3 Xrotation Yrotation Zrotation
												End Site
												{
													OFFSET 0.000023 6.780014 0.000000
												}
											}
										}
									}
								}
							}
						}
					}
				}
				JOINT RightShoulder
				{
					OFFSET -12.896300 26.716293 -4.548400
					CHANNELS 3 Xrotation Yrotation Zrotation
					JOINT RightArm
					{
						OFFSET -19.027000 -4.857010 -1.718400
						CHANNELS 3 Xrotation Yrotation Zrotation
						JOINT RightForeArm
						{
							OFFSET -24.179897 0.000000 0.000000
							CHANNELS 3 Xrotation Yrotation Zrotation
							JOINT RightHand
							{
								OFFSET -27.156403 0.000000 0.000000
								CHANNELS 3 Xrotation Yrotation Zrotation
								JOINT RightHandThumb1
								{
									OFFSET -6.591202 -4.852203 5.988100
									CHANNELS 3 Xrotation Yrotation Zrotation
									JOINT RightHandThumb2
									{
										OFFSET -3.818176 -2.204422 2.204423
										CHANNELS 3 Xrotation Yrotation Zrotation
										JOINT RightHandThumb3
										{
											OFFSET -3.252098 -1.877594 1.877601
											CHANNELS 3 Xrotation Yrotation Zrotation
											JOINT RightHandThumb4
											{
												OFFSET -5.251778 -3.032120 3.032117
												CHANNELS 3 Xrotation Yrotation Zrotation
												End Site
												{
													OFFSET -0.000023 6.780014 0.000000
												}
											}
										}
									}
								}
								JOINT RightHandIndex1
								{
									OFFSET -16.029404 0.000000 0.000000
									CHANNELS 3 Xrotation Yrotation Zrotation
									JOINT RightHandIndex2
									{
										OFFSET -5.213303 0.000000 0.000000
										CHANNELS 3 Xrotation Yrotation Zrotation
										JOINT RightHandIndex3
										{
											OFFSET -6.386528 0.000000 0.000000
											CHANNELS 3 Xrotation Yrotation Zrotation
											JOINT RightHandIndex4
											{
												OFFSET -5.189026 0.000000 0.000000
												CHANNELS 3 Xrotation Yrotation Zrotation
												End Site
												{
													OFFSET 0.236702 5.183624 0.001972
												}
											}
										}
									}
								}
							}
						}
					}
				}
			}
		}
	}
	JOINT LeftUpLeg
	{
		OFFSET 14.073000 -7.904099 -1.463000
		CHANNELS 3 Xrotation Yrotation Zrotation
		JOINT LeftLeg
		{
			OFFSET -0.109806 -34.073280 4.093200
			CHANNELS 3 Xrotation Yrotation Zrotation
			JOINT LeftFoot
			{
				OFFSET 0.109806 -29.899420 -6.319000
				CHANNELS 3 Xrotation Yrotation Zrotation
				JOINT LeftToeBase
				{
					OFFSET 1.551100 -14.988700 20.535801
					CHANNELS 3 Xrotation Yrotation Zrotation
					JOINT LeftToe_End
					{
						OFFSET 0.221200 0.570800 13.248301
						CHANNELS 3 Xrotation Yrotation Zrotation
						End Site
						{
							OFFSET 0.000000 13.262435 0.000000
						}
					}
				}
			}
		}
	}
	JOINT RightUpLeg
	{
		OFFSET -13.839300 -7.904099 -1.463000
		CHANNELS 3 Xrotation Yrotation Zrotation
		JOINT RightLeg
		{
			OFFSET 0.109694 -34.073219 4.093300
			CHANNELS 3 Xrotation Yrotation Zrotation
			JOINT RightFoot
			{
				OFFSET -0.109694 -29.899384 -6.319200
				CHANNELS 3 Xrotation Yrotation Zrotation
				JOINT RightToeBase
				{
					OFFSET -1.551100 -14.988700 20.535801
					CHANNELS 3 Xrotation Yrotation Zrotation
					JOINT RightToe_End
					{
						OFFSET -0.221200 0.570900 13.248299
						CHANNELS 3 Xrotation Yrotation Zrotation
						End Site
						{
							OFFSET 0.000000 13.262440 0.000000
						}
					}
				}
			}
		}
	}
}
MOTION
Frames: 7
Frame Time: 0.033333
-1.033290 50.199265 9.525566 -21.885082 -4.264325 -4.977758 14.388596 3.387767 4.073987 4.793194 -0.007677 0.965422 4.799358 -0.100916 0.966578 -5.739034 0.180509 0.164203 0.306479 1.812900 -1.467166 -0.000000 -0.000000 0.000000 -1.800417 -28.784514 -9.867094 12.637692 9.310876 -74.560510 0.006348 -88.075125 0.006343 75.223776 -28.497134 34.662356 6.069201 12.560535 -55.040902 0.371457 2.781614 -20.122608 -0.000476 0.511874 -7.143284 -0.000003 0.000001 -0.000001 1.724544 -21.642539 -19.188486 0.821832 15.033532 0.099133 7.578555 11.395907 -17.666115 0.000000 -0.000002 -0.000001 2.651250 17.215222 3.408655 15.239434 55.869079 38.747216 0.000014 63.031055 -0.000020 39.357097 7.447466 -42.734854 -13.204163 25.143610 5.745617 1.832567 -51.829142 -16.317180 1.944653 -16.998638 11.689222 -0.000000 -0.000000 0.000001 -1.965966 -6.866037 54.648285 0.371188 -2.780920 20.115312 -0.196199 0.099808 10.818749 0.000002 0.000000 -0.000000 -85.617330 14.549748 -5.665077 80.717366 2.261666 -8.981957 35.680632 -2.044125 -6.429769 0.186453 -0.000006 0.000004 -0.000001 0.000001 -0.000000 -65.957293 -8.476913 30.896644 73.390574 -13.287263 0.798790 11.422406 -17.988830 -9.019056 0.867163 -0.000001 -0.000001 -0.000000 0.000000 -0.000000 
-1.034033 50.191147 9.525913 -21.882895 -4.260689 -4.951933 14.399827 3.413230 4.075847 4.811064 -0.007244 0.944997 4.817045 -0.099992 0.945805 -5.727590 0.180451 0.167498 0.288400 1.816532 -1.447339 -0.000000 -0.000000 0.000000 -1.728429 -28.717974 -9.668423 12.554408 9.123074 -74.653858 0.004173 -87.980514 0.004166 75.358857 -28.385549 34.933382 6.062991 12.552028 -55.089598 0.371469 2.781638 -20.122803 -0.000491 0.511894 -7.143544 -0.000001 -0.000000 -0.000004 1.785609 -21.694383 -19.161546 0.836213 15.030547 0.059729 7.548681 11.392677 -17.654892 -0.000000 0.000002 -0.000002 2.639101 17.233348 3.406388 15.390088 55.905109 38.578684 -0.000015 63.096215 0.000015 39.189190 7.299634 -42.800650 -13.172541 25.136544 5.738970 1.806166 -51.837287 -16.332181 1.946695 -17.012965 11.684841 -0.000004 0.000001 -0.000000 -1.950907 -6.884521 54.709726 0.371212 -2.780954 20.115628 -0.196211 0.099759 10.819083 -0.000002 -0.000002 0.000001 -85.613204 14.538061 -5.688926 80.724640 2.259453 -8.986719 35.634719 -2.047478 -6.515746 0.188413 0.000005 -0.000000 -0.000000 0.000000 -0.000000 -65.983104 -8.466319 30.878039 73.421173 -13.293168 0.804146 11.411321 -17.987896 -9.023086 0.874517 0.000000 0.000004 -0.000000 0.000000 -0.000000 
-1.039347 50.198639 9.514763 -21.925805 -4.260050 -4.948434 14.442727 3.425189 4.080412 4.806598 -0.012113 0.914536 4.812360 -0.104374 0.915217 -5.731782 0.180716 0.172922 0.251984 1.826035 -1.422394 0.000000 0.000000 -0.000000 -1.648075 -28.681443 -9.434761 12.453626 9.032863 -74.842003 -0.000028 -87.810094 -0.000085 75.520404 -28.352995 35.200804 6.056836 12.544028 -55.133256 0.371427 2.781536 -20.121621 -0.000487 0.511793 -7.142404 -0.000003 0.000001 0.000002 1.828454 -21.744073 -19.141279 0.841027 15.035760 0.023650 7.524661 11.386199 -17.646480 -0.000000 0.000003 -0.000001 2.632878 17.300852 3.364506 15.523517 56.040763 38.433679 -0.000015 63.009171 0.000012 38.919156 7.209063 -43.006744 -13.146136 25.123879 5.727462 1.789979 -51.837004 -16.351676 1.950486 -17.028703 11.685591 -0.000002 0.000000 0.000000 -1.935859 -6.901760 54.761537 0.371214 -2.780956 20.115563 -0.196209 0.099786 10.818981 0.000000 0.000000 -0.000000 -85.549096 14.561405 -5.677287 80.722195 2.235215 -8.972752 35.585794 -2.045362 -6.542730 0.190735 0.000000 0.000002 -0.000000 -0.000000 -0.000000 -65.925532 -8.460922 30.883438 73.397049 -13.280658 0.797971 11.415902 -18.008282 -9.025823 0.878316 0.000005 -0.000004 -0.000000 0.000000 -0.000000 
-1.044039 50.208603 9.505753 -21.947792 -4.256291 -4.948012 14.502901 3.437768 4.081946 4.787296 -0.017376 0.883940 4.792854 -0.109190 0.884597 -5.741817 0.181400 0.179186 0.200989 1.839461 -1.393970 0.000000 -0.000000 0.000000 -1.552644 -28.644258 -9.154666 12.347848 8.943369 -75.104337 -0.001658 -87.617011 -0.001622 75.688051 -28.361625 35.504269 6.051112 12.536806 -55.171369 0.371381 2.781419 -20.120465 -0.000494 0.511676 -7.141297 0.000001 0.000001 0.000000 1.853956 -21.790260 -19.127410 0.837384 15.047969 -0.008533 7.507529 11.378082 -17.641074 -0.000000 -0.000000 -0.000001 2.627846 17.389742 3.293229 15.669958 56.183333 38.295119 -0.000016 62.921615 0.000020 38.643100 7.131458 -43.279333 -13.116050 25.110519 5.714270 1.774052 -51.835412 -16.373447 1.954216 -17.041822 11.688317 -0.000002 0.000001 0.000000 -1.923366 -6.915517 54.800059 0.371195 -2.780901 20.115047 -0.196205 0.099838 10.818500 -0.000002 0.000001 0.000001 -85.505663 14.595091 -5.666089 80.707387 2.208412 -8.957931 35.567507 -2.041626 -6.528139 0.196380 -0.000001 -0.000000 -0.000000 0.000001 0.000000 -65.885412 -8.457852 30.886652 73.369380 -13.270217 0.790491 11.423393 -18.026671 -9.020766 0.874730 0.000001 0.000005 0.000000 -0.000000 -0.000000 
-1.044577 50.210014 9.509953 -21.902871 -4.245448 -4.935254 14.579211 3.450097 4.078960 4.750346 -0.023310 0.852666 4.755698 -0.114707 0.853414 -5.757092 0.182284 0.186317 0.137160 1.855415 -1.361851 -0.000000 0.000000 -0.000000 -1.439855 -28.601390 -8.823646 12.279925 8.844354 -75.457635 0.000448 -87.460251 0.000505 75.877507 -28.372263 35.904484 6.046274 12.530588 -55.205339 0.371401 2.781495 -20.121210 -0.000479 0.511740 -7.142056 -0.000001 0.000001 -0.000000 1.866979 -21.832806 -19.118046 0.828153 15.064650 -0.037543 7.497343 11.370906 -17.638460 0.000001 -0.000002 -0.000001 2.625188 17.496593 3.187081 15.848769 56.296509 38.146996 -0.000029 62.930713 0.000030 38.427741 7.034386 -43.529069 -13.078831 25.103986 5.704918 1.750572 -51.838906 -16.394088 1.956418 -17.049491 11.689921 -0.000004 0.000001 0.000001 -1.915117 -6.925034 54.829193 0.371171 -2.780845 20.114460 -0.196202 0.099886 10.817901 -0.000003 0.000003 -0.000004 -85.537136 14.620889 -5.678284 80.689287 2.187649 -8.954465 35.575798 -2.039738 -6.516370 0.207528 0.000010 0.000002 -0.000000 -0.000002 0.000003 -65.931283 -8.459871 30.866465 73.377474 -13.271005 0.790690 11.416835 -18.025055 -9.019784 0.867586 -0.000002 -0.000004 0.000000 0.000000 -0.000000 
-1.043185 50.207527 9.524948 -21.807985 -4.236961 -4.918245 14.669781 3.459554 4.070918 4.693710 -0.030073 0.820601 4.698866 -0.121074 0.821570 -5.776720 0.183102 0.194265 0.063790 1.872073 -1.326277 0.000000 0.000000 0.000000 -1.308575 -28.548434 -8.440254 12.272100 8.728594 -75.902547 0.001030 -87.328511 0.001031 76.103313 -28.334746 36.444110 6.042723 12.525207 -55.239828 0.371555 2.781867 -20.125190 -0.000459 0.512126 -7.146056 0.000001 0.000001 -0.000002 1.879088 -21.874041 -19.108779 0.818969 15.081271 -0.066404 7.491462 11.367640 -17.637225 -0.000000 0.000001 -0.000000 2.626390 17.616422 3.041540 15.997112 56.403969 38.049577 -0.000006 62.986543 0.000020 38.319274 6.944853 -43.702040 -13.038692 25.109698 5.704197 1.716470 -51.851012 -16.410370 1.956258 -17.051622 11.687591 -0.000001 0.000000 -0.000000 -1.911159 -6.932108 54.864386 0.371169 -2.780853 20.114689 -0.196201 0.099864 10.818135 -0.000003 0.000001 0.000001 -85.621981 14.645590 -5.688809 80.679984 2.162190 -8.955936 35.582055 -2.038867 -6.520570 0.222120 0.000002 0.000007 -0.000001 0.000000 0.000000 -66.029529 -8.471987 30.837095 73.401065 -13.269569 0.794075 11.399470 -18.012628 -9.033141 0.862463 0.000002 0.000000 -0.000000 -0.000000 0.000000 
-1.043373 50.209740 9.542488 -21.695374 -4.242458 -4.904429 14.772154 3.463917 4.057719 4.616325 -0.037630 0.788264 4.621297 -0.128265 0.789594 -5.799597 0.183568 0.202878 -0.014535 1.887402 -1.287977 0.000000 0.000000 -0.000000 -1.158998 -28.482072 -8.006291 12.326936 8.594700 -76.423478 0.000672 -87.214904 0.000681 76.376883 -28.225275 37.056693 6.040823 12.520369 -55.281301 0.371735 2.782371 -20.130603 -0.000389 0.512719 -7.151502 0.000000 -0.000000 0.000001 1.901665 -21.919131 -19.095146 0.814393 15.094692 -0.099476 7.485121 11.369015 -17.635388 -0.000000 0.000001 -0.000000 2.633124 17.743061 2.853342 16.050641 56.538749 38.077161 -0.000021 63.011535 0.000016 38.296157 6.873577 -43.856757 -12.998794 25.126826 5.712237 1.672049 -51.871950 -16.421469 1.953689 -17.049547 11.680001 -0.000003 -0.000000 -0.000001 -1.910017 -6.939354 54.917620 0.371259 -2.781051 20.116586 -0.196216 0.099670 10.820013 -0.000005 -0.000001 -0.000002 -85.721333 14.680762 -5.667965 80.681849 2.127304 -8.955555 35.564119 -2.036624 -6.528110 0.232965 0.000009 0.000014 -0.000000 -0.000002 -0.000001 -66.128239 -8.493180 30.817055 73.408496 -13.251428 0.792490 11.384203 -18.007022 -9.058241 0.861470 0.000010 -0.000001 0.000000 0.000000 0.000000 
